<mxfile host="app.diagrams.net" agent="Mozilla/5.0 (Windows NT 10.0; Win64; x64) AppleWebKit/537.36 (KHTML, like Gecko) Chrome/140.0.0.0 Safari/537.36 Edg/140.0.0.0" version="28.2.3">
  <diagram name="PÃ¡gina-1" id="rrqdBHtelIrX6Av2DMnf">
    <mxGraphModel dx="1418" dy="786" grid="1" gridSize="10" guides="1" tooltips="1" connect="1" arrows="1" fold="1" page="1" pageScale="1" pageWidth="827" pageHeight="1169" math="0" shadow="0">
      <root>
        <mxCell id="0" />
        <mxCell id="1" parent="0" />
        <mxCell id="syP5aSRpSyRtZvTzLZh8-4" value="" style="edgeStyle=orthogonalEdgeStyle;rounded=0;orthogonalLoop=1;jettySize=auto;html=1;" edge="1" parent="1" source="syP5aSRpSyRtZvTzLZh8-1" target="syP5aSRpSyRtZvTzLZh8-2">
          <mxGeometry relative="1" as="geometry" />
        </mxCell>
        <mxCell id="syP5aSRpSyRtZvTzLZh8-1" value="Inicio" style="ellipse;whiteSpace=wrap;html=1;fillColor=#fff2cc;strokeColor=#d6b656;gradientColor=#ffd966;labelBorderColor=none;fontFamily=Comic Sans MS;" vertex="1" parent="1">
          <mxGeometry x="360" y="80" width="160" height="80" as="geometry" />
        </mxCell>
        <mxCell id="syP5aSRpSyRtZvTzLZh8-6" value="" style="edgeStyle=orthogonalEdgeStyle;rounded=0;orthogonalLoop=1;jettySize=auto;html=1;" edge="1" parent="1" source="syP5aSRpSyRtZvTzLZh8-2" target="syP5aSRpSyRtZvTzLZh8-5">
          <mxGeometry relative="1" as="geometry" />
        </mxCell>
        <mxCell id="syP5aSRpSyRtZvTzLZh8-2" value="Ler P1,P2,P3,P4" style="shape=parallelogram;perimeter=parallelogramPerimeter;whiteSpace=wrap;html=1;fixedSize=1;fillColor=#ffcd28;strokeColor=#d79b00;gradientColor=#ffa500;fontFamily=Times New Roman;" vertex="1" parent="1">
          <mxGeometry x="360" y="230" width="160" height="60" as="geometry" />
        </mxCell>
        <mxCell id="syP5aSRpSyRtZvTzLZh8-15" value="" style="edgeStyle=orthogonalEdgeStyle;rounded=0;orthogonalLoop=1;jettySize=auto;html=1;" edge="1" parent="1" source="syP5aSRpSyRtZvTzLZh8-5" target="syP5aSRpSyRtZvTzLZh8-9">
          <mxGeometry relative="1" as="geometry" />
        </mxCell>
        <mxCell id="syP5aSRpSyRtZvTzLZh8-5" value="Media= (P1+P2+P3+P4) /4" style="rounded=0;whiteSpace=wrap;html=1;fillColor=#ffcd28;gradientColor=#ffa500;strokeColor=#d79b00;fontFamily=Times New Roman;" vertex="1" parent="1">
          <mxGeometry x="360" y="340" width="160" height="60" as="geometry" />
        </mxCell>
        <mxCell id="syP5aSRpSyRtZvTzLZh8-14" value="" style="edgeStyle=orthogonalEdgeStyle;rounded=0;orthogonalLoop=1;jettySize=auto;html=1;" edge="1" parent="1" source="syP5aSRpSyRtZvTzLZh8-9" target="syP5aSRpSyRtZvTzLZh8-12">
          <mxGeometry relative="1" as="geometry" />
        </mxCell>
        <mxCell id="syP5aSRpSyRtZvTzLZh8-9" value="Escrever Media" style="shape=parallelogram;perimeter=parallelogramPerimeter;whiteSpace=wrap;html=1;fixedSize=1;fillColor=#ffcd28;gradientColor=#ffa500;strokeColor=#d79b00;fontFamily=Times New Roman;" vertex="1" parent="1">
          <mxGeometry x="360" y="470" width="170" height="60" as="geometry" />
        </mxCell>
        <mxCell id="syP5aSRpSyRtZvTzLZh8-12" value="Fim" style="ellipse;whiteSpace=wrap;html=1;fillColor=#fff2cc;gradientColor=#ffd966;strokeColor=#d6b656;fontFamily=Comic Sans MS;" vertex="1" parent="1">
          <mxGeometry x="380" y="610" width="140" height="80" as="geometry" />
        </mxCell>
      </root>
    </mxGraphModel>
  </diagram>
</mxfile>
